<svg id="Capa_1" enable-background="new 0 0 512 512" height="512" viewBox="0 0 512 512" width="512" xmlns="http://www.w3.org/2000/svg"><g><path d="m0 497c0 8.284 6.716 15 15 15h482c8.284 0 15-6.716 15-15s-6.716-15-15-15h-16v-47c0-8.284-6.716-15-15-15h-145v-26.838c42.826-23.63 70-68.988 70-118.161 0-48.021-25.471-92.195-66.796-116.452-1.106-2.008-2.34-3.935-3.679-5.781l15.865-22.657c4.751-6.786 3.102-16.139-3.684-20.891l-4.096-2.868 25.811-36.862c2.282-3.259 3.176-7.291 2.485-11.208-.69-3.918-2.91-7.401-6.168-9.683l-65.533-45.884c-6.785-4.752-16.139-3.104-20.891 3.684l-25.811 36.861-4.096-2.868c-6.785-4.75-16.14-3.103-20.891 3.684l-91.772 131.064c-2.282 3.259-3.176 7.29-2.485 11.208.691 3.917 2.91 7.4 6.169 9.682l4.096 2.868-25.811 36.862c-2.282 3.259-3.176 7.29-2.485 11.208s2.91 7.401 6.169 9.683l65.532 45.886c2.538 1.778 5.546 2.713 8.604 2.713.867 0 1.739-.075 2.604-.228 3.918-.691 7.401-2.91 9.683-6.168l25.811-36.862 4.096 2.868c2.618 1.833 5.619 2.714 8.591 2.714 4.729 0 9.382-2.23 12.3-6.398l16.309-23.291c4.794 1.369 9.847 2.117 15.074 2.117 2.533 0 5.022-.187 7.465-.52 10.928 8.48 17.534 21.638 17.534 35.519 0 24.813-20.187 45-45 45-27.31 0-50.724 16.938-60.331 40.854l-141.719-88.574c-7.024-4.391-16.28-2.254-20.67 4.77-4.391 7.025-2.255 16.279 4.77 20.67l152.95 95.593v26.686h-145c-8.284 0-15 6.716-15 15v47h-16c-8.284 0-15 6.716-15 15zm276-286.999c-13.785 0-25-11.215-25-25s11.215-25 25-25 25 11.215 25 25-11.215 25-25 25zm-121.901 6.104 40.957 28.679-17.207 24.574-40.958-28.678zm75.388-142.535 73.724 51.621-6.274 8.961c-6.458-2.669-13.526-4.151-20.937-4.151-30.327 0-55 24.673-55 55 0 14.26 5.457 27.267 14.39 37.05l-6.743 9.63-73.725-51.621zm74.548 15.576-40.958-28.679 17.208-24.575 40.958 28.679zm12.262 271.623c-3.804-9.431-9.752-17.769-17.247-24.41 19.302-13.583 31.95-36.015 31.95-61.358 0-18.144-6.733-35.537-18.38-49.009 7.765-6.945 13.545-16.057 16.394-26.376 20.174 19.523 31.986 46.565 31.986 75.385 0 34.339-17.069 66.292-44.703 85.768zm-25.297 59.231h-70v-35c0-19.299 15.701-35 35-35s35 15.701 35 35zm-230 62v-32h390v32z"/><circle cx="256" cy="385" r="15"/></g></svg>